<?xml version="1.0" standalone="no"?>
<!DOCTYPE svg PUBLIC "-//W3C//DTD SVG 20010904//EN"
 "http://www.w3.org/TR/2001/REC-SVG-20010904/DTD/svg10.dtd">
<svg version="1.0" xmlns="http://www.w3.org/2000/svg"
 width="1280.000000pt" height="1280.000000pt" viewBox="0 0 1280.000000 1280.000000"
 preserveAspectRatio="xMidYMid meet">
<metadata>
Created by potrace 1.15, written by Peter Selinger 2001-2017
</metadata>
<g transform="translate(0.000000,1280.000000) scale(0.100000,-0.100000)"
fill="#ffffff" stroke="none">
<path d="M4565 12394 c-40 -11 -121 -52 -146 -76 -65 -61 -119 -183 -119 -268
0 -70 27 -141 76 -203 123 -157 344 -186 497 -65 86 69 149 212 133 308 -19
121 -94 228 -192 276 -44 21 -72 27 -142 30 -48 1 -96 1 -107 -2z"/>
<path d="M5777 11700 c-84 -21 -160 -76 -207 -150 -17 -27 -33 -55 -34 -62 -2
-7 -8 -26 -15 -42 -6 -16 -10 -35 -7 -42 3 -8 1 -16 -4 -19 -6 -4 -10 -17 -10
-30 0 -13 4 -26 10 -30 5 -3 7 -11 4 -19 -3 -7 0 -26 6 -42 6 -16 12 -31 12
-34 0 -3 18 -31 40 -63 96 -141 292 -196 438 -122 66 33 131 99 167 167 25 47
28 63 28 148 0 84 -3 101 -28 147 -34 66 -104 134 -174 168 -61 29 -162 41
-226 25z"/>
<path d="M7835 11490 c-258 -47 -420 -97 -595 -186 -232 -117 -362 -221 -507
-404 -165 -208 -253 -449 -253 -689 1 -199 60 -350 189 -481 172 -172 413
-257 659 -229 307 34 543 263 560 541 5 99 -6 153 -51 239 -78 152 -218 261
-376 295 -99 21 -161 17 -307 -18 -150 -36 -186 -33 -246 21 -27 24 -32 36
-36 88 -3 50 0 68 23 114 33 66 124 203 163 244 146 157 474 270 817 282 141
5 158 4 260 -22 129 -32 190 -58 282 -118 227 -148 364 -383 422 -720 32 -184
37 -546 10 -746 -34 -257 -106 -524 -222 -833 -32 -84 -146 -311 -194 -386
-20 -31 -46 -73 -58 -92 -294 -478 -648 -844 -1210 -1249 -187 -135 -818 -561
-824 -556 -1 2 2 88 8 192 34 591 39 1351 12 1733 -21 282 -59 563 -101 746
-21 93 -98 343 -125 407 -8 20 -15 39 -16 42 0 4 -36 88 -69 160 -203 449
-406 754 -676 1016 -156 151 -289 242 -469 321 -110 49 -323 124 -410 144 -5
1 -32 7 -58 13 -129 30 -346 23 -486 -15 -31 -9 -69 -19 -86 -23 -79 -21 -252
-84 -338 -124 -270 -126 -475 -306 -659 -577 -92 -136 -133 -213 -179 -336
-22 -60 -43 -116 -46 -124 -3 -8 -6 -18 -5 -22 1 -4 -3 -20 -10 -35 -6 -15
-12 -30 -12 -33 -1 -3 -4 -9 -8 -15 -13 -22 -58 -277 -68 -387 -13 -147 1
-326 35 -458 14 -52 29 -104 34 -115 97 -215 150 -306 243 -416 105 -123 287
-249 423 -292 106 -33 271 -31 382 6 204 67 397 241 487 437 69 150 81 333 33
473 -113 325 -423 462 -721 318 -96 -47 -163 -103 -214 -180 -51 -76 -65 -110
-97 -227 -15 -54 -35 -113 -45 -129 -23 -37 -87 -75 -127 -75 -38 0 -110 40
-127 70 -8 14 -34 61 -60 105 -44 77 -87 178 -101 240 -13 58 -6 241 14 342
24 125 96 344 146 443 119 239 316 399 573 467 80 21 121 26 232 27 210 2 341
-32 605 -156 254 -119 411 -219 610 -391 184 -158 384 -375 530 -572 188 -254
396 -667 511 -1013 84 -254 164 -641 198 -967 3 -27 11 -93 17 -145 6 -52 12
-128 14 -168 3 -40 9 -119 14 -175 6 -56 15 -183 21 -282 5 -99 13 -205 16
-237 2 -31 1 -59 -4 -62 -4 -2 -93 52 -198 121 -192 128 -372 243 -379 243 -2
0 -79 46 -172 101 -147 89 -288 172 -388 229 -16 9 -75 43 -130 75 -355 206
-892 438 -1182 511 -51 12 -97 25 -103 29 -5 3 -22 8 -37 10 -16 2 -37 6 -48
9 -89 20 -128 27 -255 45 -393 55 -851 45 -1150 -25 -36 -9 -72 -17 -80 -19
-8 -2 -17 -4 -20 -5 -3 -1 -9 -2 -14 -1 -4 1 -13 -3 -20 -8 -6 -5 -23 -12 -36
-15 -31 -5 -166 -56 -244 -90 -49 -22 -128 -66 -231 -129 -118 -72 -345 -279
-434 -397 -59 -79 -177 -303 -184 -350 -2 -8 -6 -20 -9 -26 -4 -6 -9 -21 -12
-35 -3 -13 -15 -58 -26 -99 -51 -199 -70 -422 -51 -605 11 -102 64 -337 81
-360 4 -5 19 -41 34 -80 48 -122 155 -317 227 -410 218 -284 512 -522 773
-626 354 -140 766 -121 1061 49 86 50 212 181 257 267 99 190 108 438 22 631
-9 21 -18 41 -19 44 -3 12 -40 78 -59 105 -87 124 -183 205 -302 255 -245 102
-517 33 -648 -165 -79 -118 -111 -270 -87 -407 21 -121 67 -202 191 -333 87
-91 100 -116 100 -186 0 -44 -5 -55 -38 -90 -36 -39 -42 -41 -117 -50 -88 -10
-257 2 -340 25 -72 19 -141 56 -234 126 -147 111 -325 307 -414 456 -80 134
-136 374 -122 524 16 162 88 354 179 478 147 199 392 384 744 561 254 128 580
221 987 282 142 22 691 19 870 -4 377 -49 624 -113 1010 -260 161 -61 194 -75
340 -142 196 -89 869 -425 873 -435 2 -5 -7 -11 -20 -15 -51 -16 -683 -344
-833 -433 -11 -6 -96 -55 -189 -108 -452 -257 -826 -506 -1082 -720 -129 -108
-365 -349 -471 -481 -279 -349 -518 -791 -616 -1138 -42 -149 -56 -224 -69
-369 -11 -120 -10 -157 5 -295 53 -477 159 -705 457 -987 174 -165 423 -326
601 -390 226 -80 594 -115 824 -80 344 54 654 175 887 347 87 65 232 217 290
305 93 141 171 329 198 474 16 82 16 241 1 300 -6 25 -13 52 -15 60 -25 100
-112 236 -199 315 -77 70 -231 148 -347 176 -109 27 -276 29 -370 5 -231 -61
-419 -249 -461 -464 -31 -163 24 -324 154 -450 67 -66 106 -91 192 -127 62
-25 82 -28 180 -28 88 -1 130 5 210 26 116 31 133 32 183 12 52 -22 81 -52 93
-98 13 -51 -2 -95 -80 -226 -97 -164 -213 -262 -396 -332 -102 -40 -278 -85
-391 -100 -127 -17 -340 -7 -434 21 -271 78 -486 278 -593 550 -28 71 -65 205
-73 259 -2 19 -7 37 -9 42 -18 28 -27 528 -13 669 3 36 7 65 8 65 2 0 8 34 13
80 3 22 7 47 10 55 3 8 21 87 42 175 81 350 196 639 373 936 63 106 215 330
274 404 4 6 27 35 50 65 54 71 85 106 183 210 278 294 530 494 1150 912 110
74 244 165 297 201 98 67 124 81 122 62 -1 -5 -7 -116 -13 -245 -6 -129 -14
-262 -16 -295 -3 -33 -8 -226 -11 -430 -13 -735 36 -1375 132 -1745 30 -116
124 -401 135 -414 5 -6 9 -16 9 -23 0 -20 108 -260 145 -323 18 -30 51 -91 75
-135 188 -353 493 -706 761 -881 172 -112 444 -221 664 -265 104 -21 302 -31
365 -18 19 4 62 13 95 19 233 45 506 156 695 282 207 138 434 406 563 665 95
190 182 541 194 783 22 445 -158 856 -482 1102 -294 223 -647 204 -924 -49
-111 -101 -224 -288 -249 -412 -9 -46 -9 -227 0 -266 40 -166 144 -308 277
-374 156 -79 295 -81 459 -5 139 64 257 204 300 359 6 22 18 66 27 97 35 129
149 194 235 136 58 -40 154 -200 201 -336 62 -179 10 -504 -126 -798 -121
-262 -331 -441 -606 -516 -71 -19 -107 -23 -229 -22 -262 2 -458 67 -820 272
-285 161 -592 438 -861 777 -207 260 -386 594 -528 986 -49 133 -50 137 -52
147 0 4 -5 13 -11 20 -6 7 -8 15 -5 19 4 3 2 12 -4 20 -6 7 -8 13 -4 13 4 0 2
7 -5 15 -7 9 -10 18 -7 22 4 3 3 11 -2 17 -11 14 -54 186 -80 326 -51 267 -88
612 -120 1120 -12 173 -22 341 -25 373 -3 40 -1 55 7 50 6 -4 113 -75 238
-157 125 -83 240 -158 256 -167 15 -9 89 -55 163 -101 125 -78 204 -124 288
-169 18 -9 38 -22 45 -27 7 -6 41 -26 77 -45 36 -19 117 -65 180 -101 139 -81
480 -253 643 -325 159 -70 295 -119 482 -176 85 -25 118 -34 190 -51 17 -4 32
-8 35 -9 18 -5 70 -16 100 -20 19 -4 53 -10 75 -14 22 -5 47 -9 55 -10 8 0 60
-8 115 -16 297 -46 853 -30 1065 30 8 2 31 7 50 10 73 13 239 64 335 104 135
57 212 100 325 184 380 281 524 485 630 887 14 54 38 203 51 321 13 116 3 271
-28 424 -38 194 -153 468 -267 639 -68 101 -208 259 -312 351 -43 38 -85 76
-93 84 -43 40 -168 126 -256 175 -205 114 -423 169 -665 168 -378 -2 -692
-163 -814 -417 -93 -194 -101 -398 -23 -607 26 -67 65 -149 76 -158 3 -3 18
-23 32 -45 98 -148 272 -245 471 -260 302 -24 547 207 548 517 0 160 -50 276
-179 411 -109 113 -125 142 -119 214 5 57 29 92 81 119 45 24 292 20 390 -5
176 -46 398 -225 589 -474 243 -318 274 -682 87 -1017 -29 -52 -132 -183 -186
-236 -157 -157 -442 -346 -685 -455 -244 -111 -608 -210 -908 -249 -240 -31
-607 -31 -850 0 -41 5 -97 11 -125 14 -247 26 -779 176 -1031 291 -30 14 -57
25 -60 25 -5 0 -49 20 -189 86 -44 21 -82 38 -85 39 -3 1 -99 47 -215 104
-115 56 -290 141 -388 188 l-178 87 258 131 c432 220 822 433 991 541 29 19
54 34 57 34 26 0 560 367 771 530 274 212 554 529 780 882 76 119 291 528 277
528 -3 0 2 11 10 24 24 36 82 218 111 346 62 280 61 468 -4 801 -28 149 -48
207 -120 349 -95 188 -213 326 -435 506 -194 158 -447 279 -690 328 -193 39
-465 46 -630 16z"/>
<path d="M10263 11006 c-104 -34 -180 -103 -224 -201 -33 -75 -32 -200 3 -276
33 -73 84 -128 150 -164 46 -25 66 -30 148 -33 122 -5 191 18 261 88 126 126
143 308 43 456 -37 54 -66 79 -134 114 -56 28 -184 37 -247 16z"/>
<path d="M8030 9741 c-98 -30 -230 -144 -333 -288 -64 -89 -108 -195 -182
-438 -1 -5 -67 -32 -146 -59 -292 -99 -439 -186 -552 -327 -37 -46 -103 -179
-112 -224 -1 -5 -3 -12 -4 -15 -8 -16 -13 -66 -16 -145 -9 -221 112 -437 296
-529 39 -20 86 -38 106 -42 42 -8 42 0 -13 -199 -42 -150 -70 -217 -109 -263
-54 -64 -148 -93 -235 -72 -81 19 -171 97 -156 135 5 14 8 14 31 -1 32 -21
104 -13 145 16 99 70 98 221 -1 288 -29 20 -44 23 -95 20 -154 -9 -235 -158
-174 -320 31 -84 117 -160 211 -189 164 -50 296 6 373 158 13 26 45 122 70
213 26 91 49 173 52 183 4 12 16 17 44 17 65 0 182 29 229 57 113 66 188 177
211 314 15 88 2 186 -35 258 -28 56 -121 145 -170 162 -20 8 -35 20 -34 29 1
37 76 264 89 271 8 4 54 26 101 47 114 52 195 108 282 196 128 128 200 267
232 453 20 115 20 252 -1 281 -16 23 -54 28 -104 13z m9 -258 c34 -28 38 -83
10 -139 -33 -66 -130 -162 -215 -212 -71 -42 -232 -107 -242 -98 -9 10 30 120
72 201 94 184 293 315 375 248z m-603 -768 c-3 -9 -13 -41 -22 -73 -8 -31 -22
-78 -30 -103 l-15 -47 -61 -6 c-240 -28 -394 -231 -333 -441 19 -66 68 -145
90 -145 19 0 19 29 1 55 -7 11 -21 42 -30 69 -15 44 -15 53 -1 101 26 90 133
165 235 165 38 0 40 -6 24 -58 -8 -26 -17 -54 -19 -63 -2 -9 -10 -36 -18 -60
-8 -24 -36 -119 -62 -211 -55 -194 -49 -189 -161 -138 -86 39 -185 133 -224
214 -99 205 -32 430 173 576 84 61 164 96 325 146 124 38 136 40 128 19z m-15
-487 c115 -92 125 -281 21 -399 -47 -54 -105 -90 -167 -104 -62 -15 -72 -8
-57 33 6 15 13 36 18 47 4 11 8 25 9 30 1 6 3 12 4 15 2 3 4 13 7 23 2 9 6 25
8 35 3 9 5 17 6 17 1 0 3 7 5 15 5 20 85 292 90 308 6 17 12 16 56 -20z"/>
<path d="M4321 9644 c-28 -35 -44 -125 -36 -193 27 -213 140 -429 320 -612
l66 -67 -32 -158 c-28 -140 -32 -179 -33 -329 -1 -152 1 -178 23 -245 30 -97
50 -135 110 -210 90 -112 223 -201 351 -235 30 -8 94 -15 141 -15 138 0 254
45 363 141 l49 43 128 -132 c137 -141 176 -200 186 -283 8 -71 -12 -132 -65
-190 -24 -27 -52 -54 -62 -59 -31 -17 -95 -27 -117 -19 -21 8 -21 9 12 42 86
86 57 216 -62 272 -68 33 -147 10 -197 -58 -30 -41 -34 -141 -8 -194 26 -51
89 -107 138 -124 54 -18 149 -16 210 4 68 24 152 100 187 170 39 81 38 178 -3
265 -28 59 -45 79 -263 308 l-49 52 30 64 c17 35 36 84 41 108 45 193 -64 402
-257 493 -60 29 -76 32 -157 31 -99 0 -141 -13 -204 -63 l-37 -30 -103 103
-103 103 12 99 c30 249 -30 491 -166 664 -94 120 -308 280 -373 280 -11 0 -29
-12 -40 -26z m285 -202 c31 -26 59 -70 84 -137 40 -107 35 -438 -7 -452 -20
-7 -141 156 -173 234 -62 150 -68 295 -13 355 21 23 81 23 109 0z m434 -1053
c6 -11 1 -31 -16 -65 -63 -128 -51 -288 30 -387 53 -66 129 -112 209 -126 77
-15 142 -4 142 23 0 16 -8 19 -48 19 -92 0 -157 40 -199 121 -16 31 -19 53
-16 105 4 64 31 141 49 141 14 0 399 -397 399 -411 0 -14 -92 -89 -137 -113
-227 -114 -462 -47 -588 168 -89 153 -89 408 1 686 4 10 30 -10 85 -65 44 -44
84 -87 89 -96z m465 -103 c62 -28 119 -84 148 -145 28 -58 30 -185 3 -245
l-17 -40 -198 205 c-110 112 -196 208 -191 212 17 18 88 36 145 36 42 1 75 -6
110 -23z"/>
<path d="M10286 9621 c-4 -6 -11 -9 -16 -6 -16 10 -131 -58 -167 -99 -61 -70
-87 -139 -87 -231 1 -109 29 -181 100 -253 79 -78 127 -97 249 -97 95 0 103 2
162 34 119 64 176 167 177 316 1 77 -3 98 -26 147 -54 117 -165 188 -304 196
-54 3 -84 1 -88 -7z"/>
<path d="M1727 8840 c-84 -21 -190 -100 -220 -162 -21 -43 -39 -89 -44 -108
-7 -28 -6 -117 2 -129 4 -7 5 -15 2 -18 -10 -9 64 -137 101 -176 20 -21 62
-50 92 -65 47 -23 68 -27 140 -27 71 0 94 4 142 27 123 57 206 170 215 291 12
148 -86 305 -218 351 -63 22 -158 29 -212 16z"/>
<path d="M481 8131 c-71 -27 -114 -61 -167 -133 -51 -70 -64 -109 -64 -199 0
-125 91 -259 217 -316 49 -23 64 -25 146 -20 108 5 154 24 229 95 56 52 93
117 109 192 28 129 -63 298 -196 368 -69 35 -196 41 -274 13z"/>
<path d="M8228 7065 c-300 -73 -508 -351 -469 -627 6 -40 13 -82 16 -93 5 -18
-9 -23 -172 -63 -98 -24 -201 -43 -229 -43 -146 2 -243 93 -252 236 -3 59 18
124 43 132 6 2 18 -17 28 -42 60 -144 241 -152 313 -13 24 45 14 118 -21 164
-40 53 -122 88 -187 81 -93 -11 -173 -78 -219 -183 -18 -39 -21 -61 -17 -133
7 -133 58 -219 159 -270 54 -27 73 -31 142 -31 45 0 110 7 146 15 141 33 277
66 288 70 7 2 27 -17 45 -42 52 -77 126 -143 195 -175 90 -43 210 -50 312 -19
178 54 303 220 288 383 l-5 58 36 9 c21 6 85 22 143 36 l106 27 74 -57 c88
-67 226 -136 328 -164 111 -31 258 -37 361 -17 173 35 382 136 396 191 14 58
-89 144 -226 188 -116 38 -148 42 -300 42 -154 0 -200 -6 -340 -46 -54 -15
-67 -16 -80 -5 -305 267 -415 340 -579 387 -79 23 -237 24 -323 4z m176 -140
c86 -30 159 -68 228 -120 73 -55 228 -194 228 -205 0 -8 -46 -23 -160 -51 -79
-19 -86 -20 -95 -4 -52 89 -133 158 -220 191 -110 41 -244 11 -339 -76 -47
-43 -86 -111 -86 -148 0 -34 26 -26 51 16 50 83 96 112 181 112 60 0 113 -21
156 -63 35 -33 67 -85 58 -94 -10 -10 -551 -141 -558 -134 -19 17 -36 198 -22
229 4 9 6 23 5 30 -1 8 3 20 10 28 6 8 9 14 5 14 -15 0 60 127 101 171 88 94
185 131 323 125 47 -2 107 -12 134 -21z m1138 -289 c155 -25 278 -103 278
-175 0 -37 -42 -79 -86 -87 -88 -16 -242 22 -350 87 -74 45 -186 138 -179 149
4 7 80 22 170 33 60 8 81 7 167 -7z m-1118 -241 c-1 -92 -61 -185 -149 -230
-52 -26 -68 -30 -139 -29 -67 1 -90 5 -134 28 -53 27 -138 104 -126 115 8 8
516 139 534 137 8 -1 14 -10 14 -21z"/>
<path d="M4255 6826 c-62 -20 -136 -61 -181 -99 -73 -64 -122 -191 -111 -293
3 -30 5 -54 4 -54 -1 0 -65 -16 -142 -35 -113 -28 -143 -32 -156 -22 -199 147
-282 187 -459 223 -125 25 -267 16 -395 -26 -184 -59 -305 -129 -305 -175 0
-9 24 -40 53 -69 60 -60 153 -104 282 -132 87 -19 321 -28 331 -13 3 5 20 9
38 9 18 0 79 11 136 25 84 21 105 24 118 13 9 -7 57 -49 107 -92 194 -170 340
-260 483 -297 283 -72 596 62 720 309 64 128 71 199 40 406 -3 17 11 24 102
48 313 85 429 75 509 -42 29 -43 34 -58 38 -132 4 -88 -8 -130 -39 -136 -11
-2 -18 7 -22 33 -4 19 -20 51 -37 70 -99 112 -289 37 -289 -115 0 -116 132
-204 256 -171 62 17 120 64 156 129 18 31 33 60 34 65 1 4 3 8 4 10 13 12 13
142 1 165 -6 11 -8 21 -6 24 2 2 -10 33 -28 68 -38 77 -92 121 -174 145 -77
23 -139 17 -345 -34 -92 -23 -173 -41 -181 -41 -8 0 -27 19 -42 41 -36 55
-105 129 -130 140 -11 5 -27 13 -35 18 -8 5 -33 17 -55 27 -52 23 -222 30
-280 10z m321 -125 c45 -20 144 -106 144 -125 0 -6 -44 -22 -98 -34 -183 -44
-416 -102 -434 -108 -43 -13 -8 119 49 185 28 33 92 78 123 86 3 1 12 4 20 8
8 3 22 8 30 11 27 10 121 -3 166 -23z m183 -228 c25 -90 5 -266 -40 -355 -31
-62 -107 -137 -169 -168 -203 -101 -450 -37 -680 176 -114 106 -132 126 -123
134 4 4 60 20 123 35 107 26 115 27 125 10 25 -43 77 -105 102 -123 43 -30
123 -73 123 -66 0 4 7 0 16 -7 19 -15 141 -18 164 -4 8 5 23 11 33 12 30 5
101 59 146 109 45 52 71 118 54 135 -8 8 -22 -6 -50 -47 -60 -92 -142 -123
-245 -92 -69 20 -184 141 -146 152 7 3 63 16 123 30 61 15 180 44 265 65 85
22 158 40 162 40 4 1 12 -16 17 -36z m-1747 -4 c84 -17 264 -110 333 -172 l59
-54 -71 -17 c-195 -44 -447 4 -522 101 -43 54 -35 109 19 138 30 17 110 19
182 4z"/>
<path d="M6833 5840 c-58 -12 -99 -35 -155 -88 -73 -68 -100 -120 -106 -202
-8 -114 31 -184 199 -358 57 -59 114 -119 126 -132 l22 -25 -28 -59 c-39 -79
-55 -162 -48 -240 21 -228 244 -427 452 -402 61 7 103 24 165 66 l45 30 98
-103 98 -102 -8 -80 c-22 -219 4 -378 87 -550 72 -150 220 -299 377 -381 83
-44 98 -43 122 5 28 54 35 124 21 215 -32 211 -135 406 -309 584 l-61 62 31
168 c84 452 32 676 -206 882 -54 47 -189 114 -260 130 -65 15 -197 15 -260 0
-69 -16 -160 -64 -222 -116 -28 -24 -56 -44 -61 -44 -14 0 -238 237 -272 288
-70 105 -59 219 29 310 61 63 139 94 180 73 18 -10 18 -12 -14 -44 -85 -85
-53 -229 60 -272 147 -57 267 87 206 247 -14 38 -69 97 -111 118 -44 22 -139
32 -197 20z m704 -664 c41 -19 80 -47 116 -85 149 -156 179 -366 100 -693
l-26 -109 -39 38 c-22 21 -62 64 -90 95 l-50 58 29 57 c25 53 28 68 28 163 0
123 -18 171 -91 245 -68 68 -143 100 -232 100 -54 -1 -76 -5 -89 -18 -21 -21
-12 -24 75 -29 77 -5 134 -41 170 -108 21 -40 23 -54 19 -122 -5 -71 -28 -138
-49 -138 -7 0 -213 208 -341 345 l-66 70 32 33 c43 45 103 80 190 108 102 34
225 30 314 -10z m-377 -389 c102 -104 186 -195 188 -201 4 -19 -47 -38 -118
-43 -195 -14 -344 164 -300 358 19 86 21 90 33 82 7 -4 95 -92 197 -196z m830
-866 c100 -131 170 -322 154 -422 -9 -56 -43 -103 -78 -107 -100 -12 -174 123
-184 331 -4 93 10 245 24 269 10 15 36 -7 84 -71z"/>
<path d="M5690 5760 c-98 -46 -169 -148 -215 -310 -15 -52 -38 -132 -52 -177
l-25 -83 -47 0 c-104 0 -214 -44 -292 -117 -55 -52 -129 -187 -134 -244 -1
-20 -6 -42 -9 -48 -12 -19 5 -123 31 -188 32 -80 87 -142 156 -176 31 -15 58
-31 61 -36 7 -11 -61 -260 -75 -278 -6 -7 -17 -13 -24 -13 -37 0 -227 -103
-311 -169 -58 -45 -164 -166 -164 -187 0 -7 -4 -14 -9 -16 -20 -8 -84 -166
-106 -265 -28 -122 -34 -281 -12 -323 12 -22 19 -25 65 -24 66 2 138 43 234
133 92 86 152 168 204 276 41 86 114 290 114 319 0 9 50 31 143 61 277 93 395
155 511 272 125 126 183 290 174 493 -4 82 -11 119 -32 171 -14 36 -26 71 -26
77 0 7 -4 12 -9 12 -5 0 -12 12 -15 26 -9 33 -137 161 -170 170 -14 3 -26 10
-26 14 0 4 -10 10 -22 13 -31 8 -127 43 -133 49 -3 2 4 36 15 74 21 71 28 98
35 124 2 8 4 17 5 20 1 3 3 10 4 15 1 6 5 17 8 25 4 8 17 44 29 79 40 112 137
191 236 191 90 0 213 -74 213 -127 0 -20 -3 -24 -17 -17 -37 18 -117 10 -155
-16 -91 -61 -95 -217 -7 -282 83 -62 239 -2 286 110 51 123 -32 293 -177 360
-77 36 -196 41 -260 12z m-310 -627 c0 -23 -141 -526 -150 -536 -10 -11 -75
43 -104 87 -53 81 -55 207 -4 299 31 55 106 116 170 138 57 20 88 24 88 12z
m228 -67 c65 -41 145 -126 179 -191 59 -111 62 -240 10 -355 -72 -158 -243
-284 -487 -358 -146 -45 -154 -46 -146 -26 4 9 21 66 38 125 29 103 32 109 57
108 113 -3 245 60 319 153 70 88 81 235 27 342 -35 70 -70 105 -87 88 -10 -10
-9 -18 5 -40 38 -57 49 -96 45 -150 -6 -73 -47 -129 -118 -163 -57 -28 -138
-45 -152 -31 -4 4 8 64 27 132 83 290 118 406 127 417 12 14 96 -13 156 -51z
m-598 -1249 c0 -15 -36 -120 -53 -152 -11 -22 -20 -42 -20 -45 0 -3 -26 -39
-57 -80 -88 -116 -168 -175 -254 -186 -36 -5 -47 -3 -65 15 -31 31 -36 66 -16
117 38 99 152 205 292 271 40 18 75 34 78 34 2 0 17 6 32 14 25 13 63 20 63
12z"/>
<path d="M11920 5371 c-93 -30 -181 -105 -220 -188 -55 -116 -29 -285 60 -387
119 -134 350 -145 487 -21 150 134 159 351 20 502 -65 71 -124 96 -232 100
-49 1 -101 -1 -115 -6z"/>
<path d="M10734 4681 c-192 -49 -307 -236 -260 -421 44 -169 167 -265 341
-265 71 0 89 4 148 33 218 108 263 378 92 560 -59 64 -127 94 -220 98 -38 2
-84 0 -101 -5z"/>
<path d="M2160 3901 c-99 -32 -194 -122 -229 -216 -33 -89 -31 -189 7 -269 38
-79 91 -131 172 -169 57 -28 75 -31 150 -31 97 1 168 26 233 84 180 157 128
484 -91 583 -51 22 -196 33 -242 18z"/>
<path d="M2170 2506 c-127 -37 -226 -134 -254 -250 -14 -58 -8 -151 14 -209
28 -75 104 -158 178 -194 51 -25 67 -28 152 -27 110 1 158 17 230 82 42 37
108 144 102 166 -2 5 0 16 4 25 9 22 9 124 0 140 -4 7 -6 15 -3 17 8 8 -48
114 -75 145 -82 91 -235 138 -348 105z"/>
<path d="M6675 1821 c-100 -27 -179 -91 -228 -186 -29 -55 -32 -68 -32 -155 0
-84 3 -102 28 -151 117 -239 455 -265 599 -47 127 190 62 423 -142 515 -59 27
-171 39 -225 24z"/>
<path d="M7834 1110 c-135 -54 -233 -219 -218 -366 12 -112 93 -221 202 -275
63 -32 225 -34 287 -5 130 62 205 181 205 327 0 132 -63 236 -182 299 -56 30
-73 34 -153 37 -72 2 -100 -1 -141 -17z"/>
</g>
</svg>
